M48
;Layer_Color=9474304
;FILE_FORMAT=2:5
INCH,LZ
;TYPE=PLATED
T1F00S00C0.02756
T2F00S00C0.02800
T3F00S00C0.03000
T4F00S00C0.03150
T5F00S00C0.03200
T6F00S00C0.03346
T7F00S00C0.03543
T9F00S00C0.03937
T10F00S00C0.04000
T11F00S00C0.09500
%
T01
X0352362Y0138701
X0356362Y0143701
X0352362Y0148701
X0314961Y0105394
Y0095394
X0291339
Y0105394
T02
X0261811Y0037402
X0216535Y007874
X021063Y0100394
X0234189Y013189
X0234252Y0149606
X0154436Y0146932
X0242126Y0212598
X0285433Y0252716
X0192913Y0338583
X0183173
T03
X0299213Y0141732
X0319213
X0199173Y0371614
X0189173
X0179173
X0169173
X0159173
X0149173
X0139173
X0129173
X0119173
X0109173
X0099173
X0089173
X0079173
X0069173
X0059173
X0049173
T04
X0094276Y0011832
Y0029549
X0119866
Y0011832
X0146244
Y0029549
X0171835
Y0011832
X0198213
Y0029549
X0223803
Y0011832
X0248213
Y0029549
X0273803
Y0011832
X0315945Y0014764
Y003248
X0341535
Y0014764
X0343504Y0052166
Y0069882
X0317913
Y0052166
X0273803Y0051832
Y0069549
Y0091832
Y0109549
Y0131832
Y0149549
X0248213
Y0131832
Y0109549
Y0091832
Y0069549
Y0051832
X0223803
Y0069549
Y0091832
Y0109549
Y0131832
Y0149549
X0198213
Y0131832
Y0109549
Y0091832
Y0069549
Y0051832
X0171835
Y0069549
Y0091832
Y0109549
X017126Y013189
Y0149606
X0145669
Y013189
X0146244Y0109549
Y0091832
Y0069549
Y0051832
X0119866
Y0069549
Y0091832
Y0109549
Y0131832
Y0149549
X0094276
Y0131832
Y0109549
Y0091832
Y0069549
Y0051832
X0073819Y0144685
Y0162401
X0048228
Y0144685
X0033465Y0218347
Y0228346
X0035433Y0255906
Y0265905
X0167323Y0263779
Y025378
X0204724
Y0263779
T05
X009748Y0285433
X010748
X011748
X012748
X013748
X014748
X015748
X016748
X017748
T06
X0084646Y0252716
X0110984Y0255906
X0140984
X0084646Y0282716
X0253937
Y0252716
X0311024
Y0282716
X032752Y022441
X035752
X0336614Y0252716
Y0282716
T07
X0177008Y0166378
X0187008
X0197008
X0207008
X0217008
X0227008
X0237008
X0247008
X0257008
X0267008
X0277008
X0287008
X0167008
X0157008
X0147008
X0137008
X0127008
X0117008
X0107008
X0097008
X0025748Y0153858
Y0143858
Y0133858
Y0123858
Y0113858
X0015748
Y0123858
Y0133858
Y0143858
Y0153858
X0097008Y0226378
X0107008
X0117008
X0127008
X0137008
X0147008
X0157008
X0167008
X0177008
X0187008
X0197008
X0207008
X0217008
X0227008
X0237008
X0247008
X0257008
X0267008
X0277008
X0287008
T09
X0052992Y0098425
X0062992
X0072992
Y0122047
X0062992
X0052992
T10
X0052039Y003824
Y004774
Y005574
Y006574
T11
X0041339Y002524
Y007874
M30
