G04*
G04 #@! TF.GenerationSoftware,Altium Limited,Altium Designer,21.7.2 (23)*
G04*
G04 Layer_Color=16711935*
%FSLAX25Y25*%
%MOIN*%
G70*
G04*
G04 #@! TF.SameCoordinates,4245895C-60D9-4ACE-B086-DDBF023E6942*
G04*
G04*
G04 #@! TF.FilePolarity,Negative*
G04*
G01*
G75*
%ADD13C,0.06312*%
%ADD14R,0.06800X0.06800*%
%ADD15C,0.06800*%
%ADD16R,0.06800X0.06800*%
%ADD17R,0.05800X0.05800*%
%ADD18C,0.05800*%
%ADD19R,0.05800X0.10800*%
%ADD20O,0.05800X0.10800*%
%ADD21R,0.08800X0.08800*%
%ADD22O,0.08800X0.06800*%
%ADD23O,0.09800X0.08800*%
%ADD24O,0.19800X0.16800*%
%ADD25O,0.09461X0.07300*%
%ADD26R,0.09461X0.07300*%
%ADD27O,0.05918X0.04737*%
%ADD28O,0.04737X0.05918*%
%ADD29C,0.05524*%
%ADD30O,0.07800X0.06800*%
%ADD31R,0.07800X0.06800*%
%ADD32R,0.06706X0.06706*%
%ADD33C,0.06706*%
%ADD34C,0.07800*%
D13*
X84646Y252716D02*
D03*
Y282716D02*
D03*
X336614D02*
D03*
Y252716D02*
D03*
X311024Y282716D02*
D03*
Y252716D02*
D03*
X253937Y282716D02*
D03*
X357520Y224410D02*
D03*
X327520D02*
D03*
X140984Y255906D02*
D03*
X110984D02*
D03*
X253937Y252716D02*
D03*
D14*
X248213Y29549D02*
D03*
X49173Y371614D02*
D03*
X94276Y149549D02*
D03*
X145669Y149606D02*
D03*
X248213Y149549D02*
D03*
X198213D02*
D03*
X146244Y29549D02*
D03*
Y69549D02*
D03*
X94276Y29549D02*
D03*
Y69549D02*
D03*
X198213Y109549D02*
D03*
X146244D02*
D03*
X248213D02*
D03*
X198213Y29549D02*
D03*
Y69549D02*
D03*
X248213D02*
D03*
X94276Y109549D02*
D03*
X73819Y144685D02*
D03*
X315945Y32480D02*
D03*
X317913Y69882D02*
D03*
D15*
X248213Y11832D02*
D03*
X273803Y29549D02*
D03*
Y11832D02*
D03*
X204724Y263779D02*
D03*
X59173Y371614D02*
D03*
X79173D02*
D03*
X89173D02*
D03*
X99173D02*
D03*
X109173D02*
D03*
X119173D02*
D03*
X129173D02*
D03*
X139173D02*
D03*
X149173D02*
D03*
X159173D02*
D03*
X169173D02*
D03*
X179173D02*
D03*
X189173D02*
D03*
X199173D02*
D03*
X69173D02*
D03*
X319213Y141732D02*
D03*
X299213D02*
D03*
X94276Y131832D02*
D03*
X119866Y149549D02*
D03*
Y131832D02*
D03*
X145669Y131890D02*
D03*
X171260Y149606D02*
D03*
Y131890D02*
D03*
X248213Y131832D02*
D03*
X273803Y149549D02*
D03*
Y131832D02*
D03*
X198213D02*
D03*
X223803Y149549D02*
D03*
Y131832D02*
D03*
X167323Y263779D02*
D03*
X35433Y265905D02*
D03*
X33465Y228346D02*
D03*
X171835Y11832D02*
D03*
Y29549D02*
D03*
X146244Y11832D02*
D03*
X171835Y51832D02*
D03*
Y69549D02*
D03*
X146244Y51832D02*
D03*
X119866Y11832D02*
D03*
Y29549D02*
D03*
X94276Y11832D02*
D03*
X119866Y51832D02*
D03*
Y69549D02*
D03*
X94276Y51832D02*
D03*
X223803Y91832D02*
D03*
Y109549D02*
D03*
X198213Y91832D02*
D03*
X171835D02*
D03*
Y109549D02*
D03*
X146244Y91832D02*
D03*
X273803D02*
D03*
Y109549D02*
D03*
X248213Y91832D02*
D03*
X223803Y11832D02*
D03*
Y29549D02*
D03*
X198213Y11832D02*
D03*
X223803Y51832D02*
D03*
Y69549D02*
D03*
X198213Y51832D02*
D03*
X273803D02*
D03*
Y69549D02*
D03*
X248213Y51832D02*
D03*
X119866Y91832D02*
D03*
Y109549D02*
D03*
X94276Y91832D02*
D03*
X48228Y162401D02*
D03*
Y144685D02*
D03*
X73819Y162401D02*
D03*
X315945Y14764D02*
D03*
X341535Y32480D02*
D03*
Y14764D02*
D03*
X317913Y52166D02*
D03*
X343504Y69882D02*
D03*
Y52166D02*
D03*
D16*
X204724Y253780D02*
D03*
X167323D02*
D03*
X35433Y255906D02*
D03*
X33465Y218347D02*
D03*
D17*
X97480Y285433D02*
D03*
D18*
X107480D02*
D03*
X117480D02*
D03*
X177480D02*
D03*
X127480D02*
D03*
X137480D02*
D03*
X147480D02*
D03*
X157480D02*
D03*
X167480D02*
D03*
X234252Y149606D02*
D03*
X210630Y100394D02*
D03*
X216535Y78740D02*
D03*
X261811Y37402D02*
D03*
X183173Y338583D02*
D03*
X234189Y131890D02*
D03*
X242126Y212598D02*
D03*
X192913Y338583D02*
D03*
X285433Y252716D02*
D03*
X154436Y146932D02*
D03*
D19*
X97008Y166378D02*
D03*
D20*
X107008D02*
D03*
X117008D02*
D03*
X127008D02*
D03*
X137008D02*
D03*
X147008D02*
D03*
X157008D02*
D03*
X167008D02*
D03*
X177008D02*
D03*
X187008D02*
D03*
X197008D02*
D03*
X207008D02*
D03*
X217008D02*
D03*
X227008D02*
D03*
X237008D02*
D03*
X247008D02*
D03*
X257008D02*
D03*
X267008D02*
D03*
X277008D02*
D03*
X287008D02*
D03*
X97008Y226378D02*
D03*
X107008D02*
D03*
X117008D02*
D03*
X127008D02*
D03*
X137008D02*
D03*
X147008D02*
D03*
X157008D02*
D03*
X167008D02*
D03*
X177008D02*
D03*
X187008D02*
D03*
X197008D02*
D03*
X207008D02*
D03*
X217008D02*
D03*
X227008D02*
D03*
X237008D02*
D03*
X247008D02*
D03*
X257008D02*
D03*
X267008D02*
D03*
X277008D02*
D03*
X287008D02*
D03*
D21*
X52039Y65740D02*
D03*
D22*
Y55740D02*
D03*
Y47740D02*
D03*
D23*
Y38240D02*
D03*
D24*
X41339Y25240D02*
D03*
Y78740D02*
D03*
D25*
X364173Y104331D02*
D03*
D26*
X336614D02*
D03*
D27*
X352362Y148701D02*
D03*
Y138701D02*
D03*
D28*
X356362Y143701D02*
D03*
D29*
X314961Y105394D02*
D03*
Y95394D02*
D03*
X291339Y105394D02*
D03*
Y95394D02*
D03*
D30*
X25748Y113858D02*
D03*
X15748D02*
D03*
X25748Y123858D02*
D03*
X15748D02*
D03*
X25748Y133858D02*
D03*
X15748D02*
D03*
X25748Y143858D02*
D03*
X15748D02*
D03*
X25748Y153858D02*
D03*
D31*
X15748D02*
D03*
D32*
X52992Y122047D02*
D03*
D33*
X62992D02*
D03*
X72992Y98425D02*
D03*
X62992D02*
D03*
X52992D02*
D03*
D34*
X72992Y122047D02*
D03*
M02*
